<?xml version="1.0" encoding="utf-8"?>
<!-- Generator: Adobe Illustrator 25.3.0, SVG Export Plug-In . SVG Version: 6.00 Build 0)  -->
<svg version="1.1" id="Layer_1" xmlns="http://www.w3.org/2000/svg" xmlns:xlink="http://www.w3.org/1999/xlink" x="0px" y="0px"
	 viewBox="0 0 16 16" style="enable-background:new 0 0 16 16;" xml:space="preserve">
<style type="text/css">
	.st0{fill:#C977F0;}
</style>
<path class="st0" d="M4.4,1.3C5.4,0.5,6.7,0,8,0c2.7,0,4.9,2,5.2,4.6C14.8,4.8,16,6.1,16,7.8c0,1.8-1.5,3.2-3.3,3.2H10
	c-0.3,0-0.5-0.2-0.5-0.5S9.7,10,10,10h2.7C14,10,15,9,15,7.8s-1-2.2-2.3-2.2h-0.5V5c0-2.2-1.9-4-4.2-4C6.9,1,5.9,1.4,5.1,2.1
	S3.9,3.5,3.9,4.2v0.4H3.5C2.1,4.8,1,6,1,7.3C1,8.8,2.2,10,3.8,10H6c0.3,0,0.5,0.2,0.5,0.5S6.3,11,6,11H3.8C1.7,11,0,9.4,0,7.3
	c0-1.8,1.3-3.2,2.9-3.6C3.1,2.9,3.6,2,4.4,1.3z"/>
<path class="st0" d="M7.6,15.9c0.2,0.2,0.5,0.2,0.7,0l0,0l3-3c0.2-0.2,0.2-0.5,0-0.7s-0.5-0.2-0.7,0l-2.1,2.1V5.5C8.5,5.2,8.3,5,8,5
	S7.5,5.2,7.5,5.5v8.8l-2.1-2.1c-0.2-0.2-0.5-0.2-0.7,0s-0.2,0.5,0,0.7L7.6,15.9z"/>
</svg>
