<?xml version="1.0" encoding="utf-8"?>
<!-- Generator: Adobe Illustrator 25.3.0, SVG Export Plug-In . SVG Version: 6.00 Build 0)  -->
<svg version="1.1" id="Layer_1" xmlns="http://www.w3.org/2000/svg" xmlns:xlink="http://www.w3.org/1999/xlink" x="0px" y="0px"
	 viewBox="0 0 16 16" style="enable-background:new 0 0 16 16;" xml:space="preserve">
<style type="text/css">
	.st0{fill:#C977F0;}
</style>
<path class="st0" d="M0,4c0,0,0-2,2-2h12c0,0,2,0,2,2v6c0,0,0,2-2,2h-4c0,0.7,0.1,1.2,0.2,1.5H11c0.3,0,0.5,0.2,0.5,0.5
	s-0.2,0.5-0.5,0.5H5c-0.3,0-0.5-0.2-0.5-0.5s0.2-0.5,0.5-0.5h0.8C5.9,13.2,6,12.7,6,12H2c0,0-2,0-2-2V4z M1.4,3.1
	C1.3,3.2,1.2,3.3,1.1,3.4C1.1,3.6,1,3.8,1,4v6c0,0.3,0.1,0.5,0.1,0.6c0.1,0.1,0.2,0.2,0.3,0.3C1.6,10.9,1.8,11,2,11l0,0h12
	c0.3,0,0.5-0.1,0.6-0.1c0.1-0.1,0.2-0.2,0.3-0.3c0.1-0.2,0.1-0.4,0.1-0.5l0,0V4c0-0.3-0.1-0.5-0.1-0.6c-0.1-0.1-0.2-0.2-0.3-0.3
	C14.4,3.1,14.2,3,14,3H2C1.7,3,1.5,3.1,1.4,3.1z"/>
</svg>
