<?xml version="1.0" encoding="utf-8"?>
<!-- Generator: Adobe Illustrator 25.3.0, SVG Export Plug-In . SVG Version: 6.00 Build 0)  -->
<svg version="1.1" id="Layer_1" xmlns="http://www.w3.org/2000/svg" xmlns:xlink="http://www.w3.org/1999/xlink" x="0px" y="0px"
	 viewBox="0 0 16 16" style="enable-background:new 0 0 16 16;" xml:space="preserve">
<style type="text/css">
	.st0{fill:#8C8C8C;}
</style>
<path class="st0" d="M4,6c1.1,0,2,0.9,2,2s-0.9,2-2,2S2,9.1,2,8S2.9,6,4,6z M6.6,6.5C5.8,5.1,4,4.6,2.5,5.4C1.7,5.8,1.2,6.6,1,7.5
	H0.5C0.2,7.5,0,7.7,0,8c0,0.3,0.2,0.5,0.5,0.5H1c0.3,1.6,1.8,2.7,3.5,2.5C5.9,10.7,7,9.5,7,8c0-0.6,0.4-1,1-1s1,0.4,1,1
	c0,1.7,1.3,3,3,3c1.5,0,2.7-1.1,3-2.5h0.5C15.8,8.5,16,8.3,16,8c0-0.3-0.2-0.5-0.5-0.5H15c-0.3-1.6-1.8-2.7-3.5-2.5
	c-0.9,0.2-1.7,0.7-2.1,1.5C9,6.2,8.5,6,8,6C7.5,6,7,6.2,6.6,6.5z M14,8c0,1.1-0.9,2-2,2s-2-0.9-2-2s0.9-2,2-2S14,6.9,14,8z"/>
</svg>
