<?xml version="1.0" encoding="utf-8"?>
<!-- Generator: Adobe Illustrator 25.3.0, SVG Export Plug-In . SVG Version: 6.00 Build 0)  -->
<svg version="1.1" id="Layer_1" xmlns="http://www.w3.org/2000/svg" xmlns:xlink="http://www.w3.org/1999/xlink" x="0px" y="0px"
	 viewBox="0 0 64 64" style="enable-background:new 0 0 64 64;" xml:space="preserve">
<style type="text/css">
	.st0{fill:#C977F0;}
</style>
<g id="Rocket_1_">
	<path class="st0" d="M64,8.9c0-2.8-0.8-5-2.4-6.5C55.4-3.9,38.8,2.7,24,17.5c-0.5,0.5-1,1.1-1.5,1.7c-0.2-0.1-0.3-0.1-0.5-0.2
		C17.7,18,4,20.4,0,36.3c-0.1,0.4,0.1,0.8,0.4,1.1c0.2,0.1,0.4,0.2,0.6,0.2c0.2,0,0.4-0.1,0.6-0.2c5.4-3.9,9.8-5.5,13.5-4.9
		c-0.3,0.5-0.5,0.9-0.8,1.4c-0.2,0.4-0.2,0.9,0.1,1.2l1.6,1.6l-2.9,2.9c-0.2,0.2-0.3,0.4-0.3,0.7c0,0.3,0.1,0.5,0.3,0.7l9.8,9.8
		c0.2,0.2,0.5,0.3,0.7,0.3c0.3,0,0.5-0.1,0.7-0.3l2.9-2.9l1.6,1.6c0.2,0.2,0.4,0.3,0.7,0.3c0.2,0,0.4,0,0.5-0.1
		c0.4-0.3,0.8-0.5,1.3-0.7c0.7,3.8-0.9,8.2-4.9,13.6c-0.2,0.3-0.3,0.8,0,1.1c0.2,0.3,0.5,0.4,0.8,0.4c0.1,0,0.2,0,0.2,0
		c15.9-4,18.3-17.6,17.3-21.9c-0.1-0.3-0.1-0.5-0.2-0.6c0.6-0.5,1.3-1,1.8-1.6C57.1,29.2,64,17.1,64,8.9z M16.1,30.5
		c-3.9-0.8-8.2,0.3-13.3,3.6c2.5-6.9,7.1-10.2,10.6-11.8c2.7-1.2,5.1-1.5,6.7-1.5c0.4,0,0.8,0,1.1,0.1L16.1,30.5z M23.6,48.6
		l-8.4-8.4l2.2-2.2l7.3,7.2l1.1,1.1L23.6,48.6z M41.5,50.6c-1.5,3.6-4.8,8.1-11.8,10.7c3.2-5.1,4.4-9.3,3.6-13.2l9.7-5.1
		C43.1,44.2,43,47.2,41.5,50.6z M34.7,44.9c-1.8,0.8-3.4,1.7-5,2.5L16.4,34.2c0.7-1.2,1.4-2.6,2.1-3.9l4.1-7.7
		c0.8-1.3,1.8-2.6,2.9-3.6C39,5.4,54.9-1.5,60.2,3.8C61.4,4.9,62,6.7,62,8.9c0,7.5-6.8,19.4-17,29.5C42.2,41.3,38.4,43.1,34.7,44.9z
		"/>
	<path class="st0" d="M42.7,12.9C41.6,14,41,15.5,41,17.1c0,1.6,0.6,3.1,1.8,4.2c1.2,1.2,2.7,1.8,4.3,1.8c1.5,0,3.1-0.6,4.3-1.8
		c1.1-1.1,1.8-2.6,1.8-4.2c0-1.6-0.6-3.1-1.8-4.2C48.9,10.5,45.1,10.5,42.7,12.9z M49.8,19.9c-1.6,1.6-4.1,1.6-5.7,0
		c-0.8-0.8-1.2-1.8-1.2-2.8c0-1.1,0.4-2.1,1.2-2.8c0.8-0.8,1.8-1.2,2.9-1.2c1,0,2.1,0.4,2.8,1.2C50.6,15,51,16,51,17.1
		C51,18.2,50.6,19.2,49.8,19.9z"/>
	<path class="st0" d="M16.5,47.1c-0.4-0.4-1-0.4-1.4,0l-10,10c-0.4,0.4-0.4,1,0,1.4c0.2,0.2,0.5,0.3,0.7,0.3c0.3,0,0.5-0.1,0.7-0.3
		l10-10C16.9,48.2,16.9,47.5,16.5,47.1z"/>
	<path class="st0" d="M5.7,52c0.3,0,0.5-0.1,0.7-0.3l6.6-6.6c0.4-0.4,0.4-1,0-1.4c-0.4-0.4-1-0.4-1.4,0L5,50.3c-0.4,0.4-0.4,1,0,1.4
		C5.2,51.9,5.5,52,5.7,52z"/>
	<path class="st0" d="M18.5,50.6l-6.6,6.6c-0.4,0.4-0.4,1,0,1.4c0.2,0.2,0.5,0.3,0.7,0.3c0.3,0,0.5-0.1,0.7-0.3l6.6-6.6
		c0.4-0.4,0.4-1,0-1.4C19.5,50.2,18.9,50.2,18.5,50.6z"/>
</g>
</svg>
